{"title":"Chopper 2000.DVDRiP.XviD.AC3.MURD3R","uid":11717497,"size":1578019651,"categoryP":"video","categoryS":"movies","magnet":"?xt=urn:btih:9164ad115b9b00133f1a1b9e0b60c7b0932691b4&amp;dn=Chopper+2000.DVDRiP.XviD.AC3.MURD3R&amp;tr=udp%3A%2F%2Ftracker.openbittorrent.com%3A80&amp;tr=udp%3A%2F%2Fopen.demonii.com%3A1337&amp;tr=udp%3A%2F%2Ftracker.coppersurfer.tk%3A6969&amp;tr=udp%3A%2F%2Fexodus.desync.com%3A6969","seeders":1,"leechers":0,"uploader":".BONE.","files":8,"time":1424653077,"description":"Chopper 2000.DVDRiP.XviD.AC3.MURD3R.avi\nFormat : AVI\nFormat/Info : Audio Video Interleave\nFile size : 1.47 GiB\nDuration : 1h 27mn\nOverall bit rate : 2 411 Kbps\n\nVideo\nID : 0\nFormat : xvid\nCodec ID : xvid\nDuration : 1h 27mn\nBit rate : 2 176 Kbps\nWidth : 720 pixels\nHeight : 480 pixels\nDisplay aspect ratio : 3:2\nFrame rate : 25.000 fps\nStandard : NTSC\nBits/(Pixel*Frame) : 0.252\nStream size : 1.32 GiB (90%)\n\nAudio\nID : 1\nFormat : AC-3\nFormat/Info : Audio Coding 3\nMode extension : CM (complete main)\nFormat settings, Endianness : Big\nCodec ID : 2000\nDuration : 1h 27mn\nBit rate mode : Constant\nBit rate : 224 Kbps\nChannel(s) : 2 channels\nChannel positions : Front: L R\nSampling rate : 44.1 KHz\nBit depth : 16 bits\nCompression mode : Lossy\nStream size : 140 MiB (9%)\nAlignment : Aligned on interleaves\nInterleave, duration : 35 ms (0.87 video frame)\n &lt;a href=&quot;\nhttp://s20.postimage.org/br2b6fl6l/vlcsnap_2015_02_21_14h16m44s160.png&quot; rel=&quot;nofollow&quot; target=&quot;_NEW&quot;&gt;\nhttp://s20.postimage.org/br2b6fl6l/vlcsnap_2015_02_21_14h16m44s160.png&lt;/a&gt; &lt;a href=&quot;\nhttp://s20.postimage.org/qbje19g59/vlcsnap_2015_02_21_14h16m56s30.png&quot; rel=&quot;nofollow&quot; target=&quot;_NEW&quot;&gt;\nhttp://s20.postimage.org/qbje19g59/vlcsnap_2015_02_21_14h16m56s30.png&lt;/a&gt; &lt;a href=&quot;\nhttp://s20.postimage.org/425gupkot/vlcsnap_2015_02_21_14h16m20s183.png&quot; rel=&quot;nofollow&quot; target=&quot;_NEW&quot;&gt;\nhttp://s20.postimage.org/425gupkot/vlcsnap_2015_02_21_14h16m20s183.png&lt;/a&gt; &lt;a href=&quot;\nhttp://s20.postimage.org/67zrp7o59/vlcsnap_2015_02_21_14h17m49s51.png&quot; rel=&quot;nofollow&quot; target=&quot;_NEW&quot;&gt;\nhttp://s20.postimage.org/67zrp7o59/vlcsnap_2015_02_21_14h17m49s51.png&lt;/a&gt;","torrent":{"xt":"urn:btih:9164ad115b9b00133f1a1b9e0b60c7b0932691b4","amp;dn":"Chopper+2000.DVDRiP.XviD.AC3.MURD3R","amp;tr":["udp%3A%2F%2Ftracker.openbittorrent.com%3A80","udp%3A%2F%2Fopen.demonii.com%3A1337","udp%3A%2F%2Ftracker.coppersurfer.tk%3A6969","udp%3A%2F%2Fexodus.desync.com%3A6969"],"infoHash":"9164ad115b9b00133f1a1b9e0b60c7b0932691b4","infoHashBuffer":{"type":"Buffer","data":[145,100,173,17,91,155,0,19,63,26,27,158,11,96,199,176,147,38,145,180]},"announce":[],"urlList":[]}}